<?xml version="1.0" encoding="UTF-8" standalone="no"?>
<svg
   xmlns:dc="http://purl.org/dc/elements/1.1/"
   xmlns:cc="http://creativecommons.org/ns#"
   xmlns:rdf="http://www.w3.org/1999/02/22-rdf-syntax-ns#"
   xmlns:svg="http://www.w3.org/2000/svg"
   xmlns="http://www.w3.org/2000/svg"
   xmlns:sodipodi="http://sodipodi.sourceforge.net/DTD/sodipodi-0.dtd"
   xmlns:inkscape="http://www.inkscape.org/namespaces/inkscape"
   version="1.1"
   id="svg2"
   xml:space="preserve"
   width="666.66669"
   height="666.66669"
   viewBox="0 0 666.66669 666.66669"
   sodipodi:docname="building.ai"><metadata
     id="metadata8"><rdf:RDF><cc:Work
         rdf:about=""><dc:format>image/svg+xml</dc:format><dc:type
           rdf:resource="http://purl.org/dc/dcmitype/StillImage" /></cc:Work></rdf:RDF></metadata><defs
     id="defs6"><clipPath
       clipPathUnits="userSpaceOnUse"
       id="clipPath18"><path
         d="M 0,500 H 500 V 0 H 0 Z"
         id="path16" /></clipPath></defs><sodipodi:namedview
     pagecolor="#ffffff"
     bordercolor="#666666"
     borderopacity="1"
     objecttolerance="10"
     gridtolerance="10"
     guidetolerance="10"
     inkscape:pageopacity="0"
     inkscape:pageshadow="2"
     inkscape:window-width="640"
     inkscape:window-height="480"
     id="namedview4" /><g
     id="g10"
     inkscape:groupmode="layer"
     inkscape:label="building"
     transform="matrix(1.3333333,0,0,-1.3333333,0,666.66667)"><g
       id="g12"><g
         id="g14"
         clip-path="url(#clipPath18)"><path
           d="m 161.11,11.726 c 0,0.545 -0.078,1.017 -0.24,1.403 -0.157,0.392 -0.378,0.693 -0.662,0.906 -0.283,0.207 -0.595,0.314 -0.939,0.314 -0.545,0 -1.006,-0.231 -1.381,-0.676 -0.375,-0.451 -0.563,-1.11 -0.563,-1.983 0,-0.823 0.188,-1.462 0.557,-1.914 0.375,-0.458 0.838,-0.688 1.387,-0.688 0.328,0 0.634,0.1 0.916,0.302 0.276,0.199 0.502,0.497 0.671,0.891 0.171,0.403 0.254,0.881 0.254,1.445 m -3.877,3.008 v -0.249 c 0.371,0.477 0.756,0.833 1.157,1.054 0.402,0.226 0.859,0.34 1.367,0.34 0.607,0 1.168,-0.165 1.681,-0.493 0.51,-0.328 0.915,-0.805 1.213,-1.438 0.297,-0.632 0.444,-1.376 0.444,-2.238 0,-0.634 -0.083,-1.225 -0.255,-1.749 -0.171,-0.533 -0.407,-0.982 -0.706,-1.342 -0.3,-0.36 -0.656,-0.64 -1.062,-0.831 -0.41,-0.197 -0.85,-0.293 -1.315,-0.293 -0.569,0 -1.043,0.118 -1.427,0.356 -0.388,0.236 -0.751,0.582 -1.097,1.042 V 5.795 c 0,-0.909 -0.317,-1.361 -0.95,-1.361 -0.372,0 -0.62,0.115 -0.737,0.348 -0.122,0.236 -0.182,0.577 -0.182,1.026 v 8.913 c 0,0.392 0.079,0.687 0.245,0.881 0.167,0.192 0.391,0.292 0.674,0.292 0.28,0 0.509,-0.1 0.685,-0.301 0.176,-0.201 0.265,-0.488 0.265,-0.859"
           style="fill:#875420;fill-opacity:1;fill-rule:nonzero;stroke:none"
           id="path20" /><path
           d="m 169.825,8.663 v 0.261 c -0.238,-0.312 -0.486,-0.572 -0.748,-0.783 -0.261,-0.216 -0.546,-0.372 -0.853,-0.474 -0.313,-0.103 -0.664,-0.155 -1.061,-0.155 -0.475,0 -0.904,0.104 -1.285,0.308 -0.38,0.207 -0.674,0.493 -0.879,0.855 -0.25,0.439 -0.37,1.07 -0.37,1.888 v 4.093 c 0,0.41 0.089,0.722 0.268,0.925 0.179,0.204 0.415,0.307 0.708,0.307 0.301,0 0.541,-0.103 0.726,-0.312 0.184,-0.207 0.274,-0.515 0.274,-0.92 v -3.307 c 0,-0.476 0.039,-0.878 0.114,-1.202 0.081,-0.326 0.219,-0.581 0.422,-0.767 0.196,-0.182 0.469,-0.274 0.812,-0.274 0.337,0 0.65,0.105 0.943,0.311 0.296,0.204 0.512,0.474 0.646,0.807 0.111,0.293 0.166,0.932 0.166,1.921 v 2.511 c 0,0.405 0.092,0.713 0.277,0.92 0.182,0.209 0.418,0.312 0.715,0.312 0.295,0 0.531,-0.103 0.71,-0.307 0.177,-0.203 0.265,-0.515 0.265,-0.925 V 8.675 c 0,-0.393 -0.082,-0.689 -0.254,-0.883 -0.17,-0.199 -0.391,-0.295 -0.662,-0.295 -0.27,0 -0.492,0.105 -0.67,0.304 -0.176,0.207 -0.264,0.49 -0.264,0.862"
           style="fill:#875420;fill-opacity:1;fill-rule:nonzero;stroke:none"
           id="path22" /><path
           d="m 175.563,11.644 c 0,-0.822 0.179,-1.451 0.538,-1.893 0.361,-0.439 0.834,-0.663 1.42,-0.663 0.498,0 0.923,0.227 1.286,0.678 0.362,0.452 0.542,1.094 0.542,1.938 0,0.55 -0.076,1.017 -0.226,1.408 -0.151,0.396 -0.365,0.7 -0.638,0.912 -0.279,0.214 -0.596,0.325 -0.964,0.325 -0.381,0 -0.711,-0.111 -1.008,-0.325 -0.297,-0.212 -0.527,-0.524 -0.698,-0.931 -0.169,-0.403 -0.252,-0.884 -0.252,-1.449 m -0.093,6.137 v -3.156 c 0.367,0.407 0.749,0.713 1.134,0.932 0.387,0.214 0.868,0.322 1.436,0.322 0.658,0 1.233,-0.165 1.729,-0.487 0.494,-0.331 0.88,-0.799 1.152,-1.416 0.275,-0.618 0.41,-1.35 0.41,-2.197 0,-0.627 -0.075,-1.199 -0.226,-1.724 -0.153,-0.52 -0.372,-0.97 -0.663,-1.358 -0.293,-0.381 -0.644,-0.674 -1.055,-0.89 -0.415,-0.205 -0.87,-0.312 -1.367,-0.312 -0.302,0 -0.591,0.039 -0.861,0.113 -0.267,0.077 -0.498,0.175 -0.681,0.302 -0.192,0.117 -0.352,0.249 -0.486,0.377 -0.132,0.133 -0.305,0.328 -0.522,0.59 V 8.675 c 0,-0.39 -0.092,-0.683 -0.271,-0.883 -0.177,-0.199 -0.407,-0.297 -0.679,-0.297 -0.283,0 -0.504,0.098 -0.673,0.297 -0.165,0.204 -0.248,0.495 -0.248,0.883 v 9.016 c 0,0.415 0.08,0.733 0.244,0.946 0.161,0.216 0.385,0.322 0.677,0.322 0.302,0 0.538,-0.102 0.7,-0.308 0.166,-0.202 0.25,-0.491 0.25,-0.87"
           style="fill:#875420;fill-opacity:1;fill-rule:nonzero;stroke:none"
           id="path24" /><path
           d="m 182.728,8.752 v 8.952 c 0,0.415 0.087,0.726 0.261,0.939 0.18,0.21 0.416,0.316 0.716,0.316 0.3,0 0.54,-0.103 0.725,-0.313 0.18,-0.208 0.276,-0.525 0.276,-0.942 V 8.752 c 0,-0.419 -0.096,-0.734 -0.281,-0.945 -0.185,-0.205 -0.426,-0.312 -0.72,-0.312 -0.29,0 -0.522,0.109 -0.705,0.325 -0.182,0.218 -0.272,0.527 -0.272,0.932"
           style="fill:#875420;fill-opacity:1;fill-rule:nonzero;stroke:none"
           id="path26" /><path
           d="M 188.726,14.715 V 8.752 c 0,-0.416 -0.097,-0.729 -0.281,-0.94 -0.19,-0.208 -0.43,-0.317 -0.717,-0.317 -0.291,0 -0.528,0.109 -0.707,0.324 -0.18,0.219 -0.274,0.528 -0.274,0.933 v 5.904 c 0,0.405 0.094,0.713 0.274,0.92 0.179,0.209 0.416,0.312 0.707,0.312 0.287,0 0.527,-0.103 0.717,-0.312 0.184,-0.207 0.281,-0.493 0.281,-0.861 m -0.979,2.135 c -0.275,0 -0.509,0.088 -0.709,0.268 -0.19,0.176 -0.291,0.428 -0.291,0.751 0,0.291 0.101,0.529 0.302,0.722 0.2,0.189 0.432,0.278 0.698,0.278 0.256,0 0.484,-0.083 0.682,-0.253 0.197,-0.172 0.297,-0.424 0.297,-0.747 0,-0.32 -0.098,-0.568 -0.291,-0.745 -0.194,-0.179 -0.42,-0.274 -0.688,-0.274"
           style="fill:#875420;fill-opacity:1;fill-rule:nonzero;stroke:none"
           id="path28" /><path
           d="m 197.854,10.052 c 0,-0.256 -0.072,-0.532 -0.218,-0.824 -0.15,-0.292 -0.374,-0.57 -0.677,-0.835 -0.3,-0.264 -0.681,-0.477 -1.14,-0.637 -0.459,-0.165 -0.976,-0.244 -1.549,-0.244 -1.224,0 -2.177,0.373 -2.864,1.115 -0.684,0.744 -1.028,1.738 -1.028,2.989 0,0.847 0.156,1.598 0.469,2.246 0.313,0.647 0.771,1.154 1.363,1.507 0.593,0.358 1.306,0.535 2.129,0.535 0.514,0 0.984,-0.08 1.412,-0.234 0.427,-0.157 0.789,-0.36 1.086,-0.605 0.297,-0.248 0.523,-0.511 0.682,-0.79 0.158,-0.279 0.234,-0.541 0.234,-0.783 0,-0.244 -0.09,-0.453 -0.264,-0.626 -0.177,-0.173 -0.388,-0.258 -0.64,-0.258 -0.166,0 -0.301,0.048 -0.412,0.136 -0.106,0.085 -0.229,0.224 -0.366,0.425 -0.24,0.382 -0.494,0.671 -0.757,0.866 -0.263,0.19 -0.598,0.288 -1.001,0.288 -0.587,0 -1.058,-0.242 -1.415,-0.718 -0.358,-0.479 -0.535,-1.129 -0.535,-1.957 0,-0.385 0.046,-0.747 0.139,-1.07 0.091,-0.326 0.224,-0.602 0.396,-0.833 0.175,-0.229 0.383,-0.402 0.63,-0.52 0.246,-0.121 0.518,-0.179 0.811,-0.179 0.398,0 0.736,0.094 1.019,0.286 0.284,0.193 0.534,0.486 0.75,0.875 0.121,0.237 0.251,0.417 0.392,0.55 0.142,0.132 0.313,0.194 0.516,0.194 0.241,0 0.441,-0.094 0.602,-0.285 0.156,-0.195 0.236,-0.397 0.236,-0.614"
           style="fill:#875420;fill-opacity:1;fill-rule:nonzero;stroke:none"
           id="path30" /><path
           d="m 201.113,11.704 c 0,-0.559 0.083,-1.033 0.249,-1.429 0.168,-0.394 0.393,-0.686 0.683,-0.885 0.292,-0.202 0.608,-0.302 0.948,-0.302 0.349,0 0.666,0.097 0.953,0.283 0.289,0.191 0.516,0.482 0.69,0.872 0.172,0.389 0.257,0.878 0.257,1.461 0,0.553 -0.085,1.023 -0.257,1.42 -0.174,0.397 -0.405,0.698 -0.696,0.911 -0.293,0.207 -0.611,0.314 -0.959,0.314 -0.361,0 -0.684,-0.111 -0.97,-0.325 -0.283,-0.212 -0.507,-0.523 -0.663,-0.923 -0.156,-0.403 -0.235,-0.864 -0.235,-1.397 m 3.888,-3.029 v 0.202 c -0.266,-0.317 -0.527,-0.575 -0.789,-0.772 -0.254,-0.201 -0.536,-0.352 -0.838,-0.456 -0.301,-0.1 -0.631,-0.154 -0.987,-0.154 -0.473,0 -0.914,0.107 -1.316,0.312 -0.402,0.216 -0.751,0.511 -1.046,0.899 -0.294,0.388 -0.517,0.844 -0.671,1.37 -0.154,0.523 -0.228,1.09 -0.228,1.703 0,1.287 0.303,2.298 0.906,3.019 0.606,0.721 1.399,1.081 2.383,1.081 0.569,0 1.051,-0.105 1.441,-0.313 0.391,-0.2 0.774,-0.514 1.145,-0.941 v 3.049 c 0,0.424 0.08,0.744 0.243,0.96 0.161,0.218 0.39,0.325 0.691,0.325 0.298,0 0.529,-0.1 0.693,-0.297 0.16,-0.198 0.244,-0.493 0.244,-0.881 V 8.675 c 0,-0.393 -0.088,-0.689 -0.263,-0.883 -0.174,-0.199 -0.397,-0.297 -0.674,-0.297 -0.268,0 -0.495,0.102 -0.671,0.306 -0.175,0.203 -0.263,0.492 -0.263,0.874"
           style="fill:#875420;fill-opacity:1;fill-rule:nonzero;stroke:none"
           id="path32" /><path
           d="m 214.276,11.688 c 0,0.838 -0.18,1.496 -0.533,1.964 -0.355,0.466 -0.834,0.703 -1.431,0.703 -0.389,0 -0.728,-0.105 -1.023,-0.314 -0.294,-0.212 -0.52,-0.52 -0.681,-0.929 -0.158,-0.404 -0.239,-0.878 -0.239,-1.424 0,-0.541 0.081,-1.01 0.235,-1.413 0.157,-0.403 0.382,-0.712 0.676,-0.926 0.291,-0.214 0.638,-0.32 1.032,-0.32 0.597,0 1.076,0.235 1.431,0.705 0.353,0.47 0.533,1.123 0.533,1.954 m 1.985,0 c 0,-0.612 -0.093,-1.18 -0.276,-1.703 -0.183,-0.514 -0.449,-0.962 -0.795,-1.336 -0.35,-0.374 -0.765,-0.653 -1.248,-0.857 -0.482,-0.199 -1.03,-0.297 -1.63,-0.297 -0.598,0 -1.138,0.098 -1.615,0.303 -0.478,0.2 -0.894,0.489 -1.245,0.865 -0.348,0.377 -0.613,0.816 -0.797,1.328 -0.18,0.516 -0.27,1.077 -0.27,1.7 0,0.625 0.093,1.197 0.274,1.713 0.184,0.523 0.445,0.963 0.789,1.334 0.344,0.367 0.758,0.651 1.249,0.849 0.49,0.2 1.025,0.301 1.615,0.301 0.599,0 1.143,-0.101 1.63,-0.304 0.487,-0.2 0.905,-0.49 1.252,-0.863 0.35,-0.372 0.614,-0.819 0.791,-1.333 0.186,-0.513 0.276,-1.08 0.276,-1.7"
           style="fill:#875420;fill-opacity:1;fill-rule:nonzero;stroke:none"
           id="path34" /><path
           d="m 224.614,13.393 c -0.148,-0.349 -0.218,-0.965 -0.218,-1.852 V 8.798 c 0,-0.432 -0.093,-0.76 -0.284,-0.978 -0.187,-0.216 -0.439,-0.325 -0.748,-0.325 -0.297,0 -0.539,0.109 -0.723,0.325 -0.187,0.218 -0.278,0.546 -0.278,0.978 v 3.293 c 0,0.517 -0.019,0.92 -0.053,1.211 -0.035,0.284 -0.125,0.521 -0.276,0.706 -0.146,0.185 -0.385,0.277 -0.707,0.277 -0.646,0 -1.072,-0.232 -1.279,-0.699 -0.207,-0.462 -0.305,-1.128 -0.305,-1.997 V 8.798 c 0,-0.431 -0.096,-0.755 -0.279,-0.97 -0.188,-0.224 -0.433,-0.333 -0.734,-0.333 -0.301,0 -0.549,0.109 -0.739,0.333 -0.192,0.215 -0.283,0.539 -0.283,0.969 v 5.907 c 0,0.39 0.082,0.685 0.252,0.886 0.174,0.2 0.399,0.304 0.682,0.304 0.269,0 0.496,-0.094 0.675,-0.284 0.181,-0.188 0.272,-0.448 0.272,-0.782 v -0.196 c 0.342,0.429 0.71,0.745 1.099,0.944 0.391,0.201 0.831,0.303 1.305,0.303 0.496,0 0.922,-0.105 1.279,-0.313 0.36,-0.204 0.653,-0.517 0.883,-0.934 0.334,0.42 0.692,0.737 1.074,0.94 0.382,0.205 0.804,0.307 1.266,0.307 0.545,0 1.01,-0.108 1.399,-0.334 0.392,-0.222 0.683,-0.538 0.877,-0.952 0.17,-0.373 0.253,-0.96 0.253,-1.764 V 8.798 c 0,-0.432 -0.093,-0.76 -0.279,-0.978 -0.192,-0.216 -0.438,-0.325 -0.748,-0.325 -0.301,0 -0.545,0.109 -0.734,0.333 -0.194,0.215 -0.289,0.539 -0.289,0.97 v 3.473 c 0,0.445 -0.018,0.799 -0.053,1.067 -0.037,0.27 -0.135,0.491 -0.296,0.674 -0.158,0.181 -0.401,0.273 -0.722,0.273 -0.26,0 -0.509,-0.082 -0.74,-0.239 -0.238,-0.164 -0.416,-0.381 -0.549,-0.653"
           style="fill:#875420;fill-opacity:1;fill-rule:nonzero;stroke:none"
           id="path36" /><path
           d="m 235.815,11.648 c -0.291,-0.113 -0.712,-0.227 -1.265,-0.353 -0.554,-0.123 -0.937,-0.213 -1.15,-0.273 -0.212,-0.059 -0.416,-0.171 -0.606,-0.338 -0.195,-0.174 -0.293,-0.409 -0.293,-0.711 0,-0.316 0.115,-0.579 0.34,-0.799 0.228,-0.222 0.526,-0.329 0.893,-0.329 0.391,0 0.754,0.091 1.083,0.269 0.331,0.178 0.577,0.411 0.728,0.692 0.18,0.313 0.27,0.826 0.27,1.548 z m 0.129,-2.99 c -0.479,-0.388 -0.941,-0.679 -1.387,-0.87 -0.446,-0.197 -0.95,-0.293 -1.502,-0.293 -0.511,0 -0.952,0.107 -1.339,0.312 -0.387,0.211 -0.68,0.495 -0.889,0.856 -0.205,0.358 -0.311,0.742 -0.311,1.162 0,0.566 0.175,1.045 0.517,1.445 0.34,0.395 0.811,0.664 1.409,0.8 0.126,0.031 0.44,0.096 0.934,0.201 0.503,0.11 0.925,0.205 1.285,0.292 0.352,0.087 0.739,0.195 1.154,0.32 -0.025,0.547 -0.129,0.946 -0.314,1.206 -0.188,0.252 -0.576,0.377 -1.157,0.377 -0.505,0 -0.881,-0.071 -1.138,-0.218 -0.252,-0.144 -0.471,-0.366 -0.649,-0.662 -0.184,-0.29 -0.309,-0.484 -0.384,-0.576 -0.077,-0.096 -0.238,-0.138 -0.481,-0.138 -0.225,0 -0.416,0.073 -0.576,0.22 -0.164,0.15 -0.244,0.338 -0.244,0.573 0,0.362 0.123,0.718 0.368,1.056 0.247,0.344 0.632,0.626 1.153,0.851 0.521,0.222 1.172,0.332 1.951,0.332 0.867,0 1.552,-0.11 2.052,-0.323 0.497,-0.212 0.844,-0.549 1.051,-1.017 0.207,-0.46 0.309,-1.078 0.309,-1.843 0,-0.484 0,-0.898 -0.003,-1.234 -0.004,-0.34 -0.006,-0.715 -0.011,-1.128 0,-0.386 0.062,-0.793 0.186,-1.212 0.12,-0.42 0.181,-0.693 0.181,-0.811 0,-0.213 -0.096,-0.406 -0.286,-0.58 -0.186,-0.173 -0.405,-0.261 -0.645,-0.261 -0.206,0 -0.403,0.098 -0.604,0.297 -0.197,0.2 -0.407,0.49 -0.63,0.866"
           style="fill:#875420;fill-opacity:1;fill-rule:nonzero;stroke:none"
           id="path38" /><path
           d="M 241.743,14.715 V 8.752 c 0,-0.416 -0.095,-0.729 -0.28,-0.94 -0.189,-0.208 -0.426,-0.317 -0.717,-0.317 -0.289,0 -0.527,0.109 -0.706,0.324 -0.184,0.219 -0.274,0.528 -0.274,0.933 v 5.904 c 0,0.405 0.09,0.713 0.274,0.92 0.179,0.209 0.417,0.312 0.706,0.312 0.291,0 0.528,-0.103 0.717,-0.312 0.185,-0.207 0.28,-0.493 0.28,-0.861 m -0.977,2.135 c -0.273,0 -0.507,0.088 -0.703,0.268 -0.196,0.176 -0.297,0.428 -0.297,0.751 0,0.291 0.102,0.529 0.303,0.722 0.199,0.189 0.434,0.278 0.697,0.278 0.256,0 0.486,-0.083 0.684,-0.253 0.196,-0.172 0.293,-0.424 0.293,-0.747 0,-0.32 -0.095,-0.568 -0.289,-0.745 -0.193,-0.179 -0.423,-0.274 -0.688,-0.274"
           style="fill:#875420;fill-opacity:1;fill-rule:nonzero;stroke:none"
           id="path40" /><path
           d="m 245.587,14.745 v -0.246 c 0.346,0.477 0.726,0.828 1.136,1.052 0.414,0.223 0.888,0.337 1.427,0.337 0.519,0 0.988,-0.117 1.401,-0.358 0.406,-0.235 0.715,-0.568 0.916,-1 0.132,-0.255 0.214,-0.529 0.255,-0.82 0.036,-0.29 0.058,-0.663 0.058,-1.118 v -3.84 c 0,-0.416 -0.093,-0.729 -0.273,-0.94 -0.182,-0.208 -0.418,-0.317 -0.706,-0.317 -0.294,0 -0.534,0.109 -0.711,0.325 -0.187,0.218 -0.28,0.527 -0.28,0.932 v 3.437 c 0,0.685 -0.088,1.204 -0.269,1.563 -0.185,0.36 -0.547,0.543 -1.088,0.543 -0.351,0 -0.673,-0.11 -0.962,-0.331 -0.289,-0.217 -0.502,-0.52 -0.637,-0.903 -0.096,-0.308 -0.147,-0.88 -0.147,-1.727 V 8.752 c 0,-0.419 -0.091,-0.734 -0.278,-0.945 -0.187,-0.205 -0.427,-0.312 -0.72,-0.312 -0.283,0 -0.52,0.109 -0.702,0.324 -0.187,0.219 -0.277,0.528 -0.277,0.933 v 5.963 c 0,0.395 0.082,0.685 0.249,0.881 0.16,0.194 0.39,0.292 0.673,0.292 0.171,0 0.33,-0.046 0.468,-0.129 0.145,-0.084 0.253,-0.217 0.338,-0.382 0.082,-0.176 0.129,-0.385 0.129,-0.632"
           style="fill:#875420;fill-opacity:1;fill-rule:nonzero;stroke:none"
           id="path42" /><path
           d="m 253.954,14.604 1.598,-4.688 1.724,4.892 c 0.138,0.393 0.27,0.669 0.402,0.834 0.134,0.163 0.328,0.246 0.593,0.246 0.25,0 0.463,-0.088 0.644,-0.268 0.173,-0.175 0.262,-0.376 0.262,-0.613 0,-0.089 -0.018,-0.194 -0.049,-0.312 -0.028,-0.124 -0.065,-0.237 -0.107,-0.345 -0.042,-0.102 -0.085,-0.225 -0.142,-0.36 l -1.898,-4.915 c -0.053,-0.139 -0.124,-0.321 -0.206,-0.539 -0.086,-0.215 -0.181,-0.396 -0.283,-0.557 -0.105,-0.151 -0.232,-0.267 -0.383,-0.354 -0.155,-0.086 -0.339,-0.13 -0.557,-0.13 -0.281,0 -0.502,0.067 -0.671,0.198 -0.167,0.135 -0.29,0.28 -0.369,0.442 -0.078,0.156 -0.215,0.471 -0.402,0.94 l -1.885,4.862 c -0.043,0.119 -0.09,0.241 -0.137,0.362 -0.044,0.121 -0.079,0.241 -0.113,0.37 -0.031,0.129 -0.048,0.236 -0.048,0.323 0,0.145 0.041,0.283 0.125,0.422 0.082,0.14 0.196,0.255 0.34,0.341 0.147,0.087 0.3,0.133 0.472,0.133 0.326,0 0.553,-0.098 0.677,-0.298 0.124,-0.195 0.263,-0.525 0.413,-0.986"
           style="fill:#875420;fill-opacity:1;fill-rule:nonzero;stroke:none"
           id="path44" /><path
           d="m 262.044,12.361 h 3.585 c -0.046,0.703 -0.227,1.232 -0.546,1.58 -0.317,0.349 -0.734,0.525 -1.252,0.525 -0.489,0 -0.895,-0.178 -1.21,-0.532 -0.316,-0.354 -0.506,-0.879 -0.577,-1.573 m 3.869,-1.174 h -3.869 c 0.001,-0.471 0.096,-0.883 0.269,-1.244 0.179,-0.354 0.412,-0.625 0.705,-0.808 0.292,-0.183 0.615,-0.271 0.968,-0.271 0.236,0 0.454,0.029 0.647,0.085 0.195,0.061 0.387,0.151 0.572,0.273 0.181,0.124 0.348,0.253 0.504,0.399 0.152,0.141 0.359,0.329 0.602,0.572 0.102,0.096 0.248,0.138 0.434,0.138 0.206,0 0.368,-0.056 0.494,-0.175 0.126,-0.116 0.186,-0.278 0.186,-0.489 0,-0.188 -0.069,-0.405 -0.21,-0.657 -0.139,-0.246 -0.346,-0.488 -0.634,-0.719 -0.283,-0.228 -0.638,-0.415 -1.065,-0.57 -0.425,-0.151 -0.914,-0.226 -1.475,-0.226 -1.269,0 -2.258,0.381 -2.96,1.133 -0.704,0.761 -1.056,1.783 -1.056,3.076 0,0.617 0.09,1.179 0.26,1.699 0.174,0.524 0.426,0.97 0.76,1.342 0.334,0.375 0.742,0.663 1.231,0.859 0.491,0.201 1.029,0.3 1.625,0.3 0.768,0 1.433,-0.17 1.986,-0.512 0.554,-0.34 0.967,-0.777 1.243,-1.315 0.275,-0.543 0.413,-1.09 0.413,-1.653 0,-0.516 -0.139,-0.853 -0.427,-1.005 -0.287,-0.156 -0.685,-0.232 -1.203,-0.232"
           style="fill:#875420;fill-opacity:1;fill-rule:nonzero;stroke:none"
           id="path46" /><path
           d="m 276.306,10.052 c 0,-0.256 -0.074,-0.532 -0.224,-0.824 -0.148,-0.292 -0.368,-0.57 -0.673,-0.835 -0.301,-0.264 -0.684,-0.477 -1.144,-0.637 -0.456,-0.165 -0.976,-0.244 -1.546,-0.244 -1.226,0 -2.18,0.373 -2.865,1.115 -0.683,0.744 -1.029,1.738 -1.029,2.989 0,0.847 0.156,1.598 0.473,2.246 0.314,0.647 0.765,1.154 1.36,1.507 0.592,0.358 1.305,0.535 2.132,0.535 0.512,0 0.98,-0.08 1.41,-0.234 0.427,-0.157 0.786,-0.36 1.087,-0.605 0.297,-0.248 0.522,-0.511 0.681,-0.79 0.155,-0.279 0.234,-0.541 0.234,-0.783 0,-0.244 -0.086,-0.453 -0.268,-0.626 -0.174,-0.173 -0.387,-0.258 -0.638,-0.258 -0.165,0 -0.301,0.048 -0.407,0.136 -0.112,0.085 -0.233,0.224 -0.369,0.425 -0.242,0.382 -0.493,0.671 -0.756,0.866 -0.264,0.19 -0.598,0.288 -1.005,0.288 -0.581,0 -1.054,-0.242 -1.41,-0.718 -0.361,-0.479 -0.538,-1.129 -0.538,-1.957 0,-0.385 0.048,-0.747 0.136,-1.07 0.093,-0.326 0.227,-0.602 0.402,-0.833 0.172,-0.229 0.384,-0.402 0.63,-0.52 0.243,-0.121 0.514,-0.179 0.811,-0.179 0.396,0 0.736,0.094 1.019,0.286 0.281,0.193 0.533,0.486 0.751,0.875 0.121,0.237 0.249,0.417 0.39,0.55 0.139,0.132 0.309,0.194 0.515,0.194 0.238,0 0.442,-0.094 0.596,-0.285 0.163,-0.195 0.245,-0.397 0.245,-0.614"
           style="fill:#875420;fill-opacity:1;fill-rule:nonzero;stroke:none"
           id="path48" /><path
           d="m 278.142,15.714 h 0.217 v 1.241 c 0,0.33 0.009,0.594 0.027,0.781 0.016,0.19 0.06,0.349 0.141,0.488 0.076,0.138 0.187,0.255 0.334,0.344 0.144,0.086 0.305,0.128 0.484,0.128 0.25,0 0.478,-0.096 0.679,-0.292 0.133,-0.133 0.221,-0.291 0.257,-0.478 0.037,-0.19 0.054,-0.461 0.054,-0.808 v -1.404 h 0.727 c 0.28,0 0.495,-0.07 0.641,-0.209 0.151,-0.139 0.222,-0.315 0.222,-0.532 0,-0.278 -0.105,-0.474 -0.318,-0.583 -0.209,-0.109 -0.509,-0.165 -0.901,-0.165 h -0.371 v -3.802 c 0,-0.323 0.012,-0.572 0.032,-0.748 0.026,-0.175 0.087,-0.317 0.179,-0.422 0.091,-0.108 0.245,-0.165 0.459,-0.165 0.115,0 0.271,0.02 0.472,0.065 0.193,0.042 0.348,0.064 0.461,0.064 0.159,0 0.307,-0.07 0.433,-0.196 0.125,-0.138 0.191,-0.3 0.191,-0.499 0,-0.331 -0.17,-0.585 -0.521,-0.762 -0.352,-0.177 -0.85,-0.265 -1.499,-0.265 -0.619,0 -1.089,0.109 -1.407,0.325 -0.318,0.218 -0.53,0.516 -0.625,0.904 -0.102,0.382 -0.151,0.893 -0.151,1.534 v 3.967 h -0.262 c -0.281,0 -0.498,0.07 -0.65,0.213 -0.15,0.14 -0.223,0.317 -0.223,0.535 0,0.217 0.077,0.393 0.232,0.532 0.159,0.139 0.386,0.209 0.686,0.209"
           style="fill:#875420;fill-opacity:1;fill-rule:nonzero;stroke:none"
           id="path50" /><path
           d="m 288.702,11.688 c 0,0.838 -0.18,1.496 -0.532,1.964 -0.358,0.466 -0.831,0.703 -1.432,0.703 -0.387,0 -0.727,-0.105 -1.02,-0.314 -0.297,-0.212 -0.524,-0.52 -0.682,-0.929 -0.159,-0.404 -0.24,-0.878 -0.24,-1.424 0,-0.541 0.081,-1.01 0.237,-1.413 0.156,-0.403 0.38,-0.712 0.672,-0.926 0.291,-0.214 0.636,-0.32 1.033,-0.32 0.601,0 1.074,0.235 1.432,0.705 0.352,0.47 0.532,1.123 0.532,1.954 m 1.986,0 c 0,-0.612 -0.091,-1.18 -0.278,-1.703 -0.181,-0.514 -0.449,-0.962 -0.795,-1.336 -0.348,-0.374 -0.764,-0.653 -1.246,-0.857 -0.484,-0.199 -1.024,-0.297 -1.631,-0.297 -0.601,0 -1.14,0.098 -1.617,0.303 -0.476,0.2 -0.892,0.489 -1.242,0.865 -0.349,0.377 -0.615,0.816 -0.794,1.328 -0.181,0.516 -0.27,1.077 -0.27,1.7 0,0.625 0.089,1.197 0.27,1.713 0.187,0.523 0.447,0.963 0.79,1.334 0.346,0.367 0.76,0.651 1.246,0.849 0.493,0.2 1.03,0.301 1.617,0.301 0.601,0 1.141,-0.101 1.631,-0.304 0.487,-0.2 0.903,-0.49 1.252,-0.863 0.345,-0.372 0.614,-0.819 0.795,-1.333 0.181,-0.513 0.272,-1.08 0.272,-1.7"
           style="fill:#875420;fill-opacity:1;fill-rule:nonzero;stroke:none"
           id="path52" /><path
           d="M 294.211,10.471 V 8.752 c 0,-0.419 -0.095,-0.734 -0.283,-0.945 -0.19,-0.205 -0.428,-0.312 -0.72,-0.312 -0.281,0 -0.519,0.109 -0.7,0.317 -0.184,0.211 -0.274,0.524 -0.274,0.94 v 5.745 c 0,0.929 0.32,1.391 0.962,1.391 0.325,0 0.564,-0.111 0.711,-0.325 0.143,-0.216 0.219,-0.538 0.239,-0.959 0.235,0.421 0.48,0.743 0.729,0.959 0.249,0.214 0.579,0.325 0.992,0.325 0.419,0 0.821,-0.111 1.214,-0.325 0.389,-0.216 0.587,-0.505 0.587,-0.862 0,-0.252 -0.086,-0.463 -0.252,-0.624 -0.165,-0.163 -0.346,-0.248 -0.541,-0.248 -0.071,0 -0.247,0.048 -0.524,0.144 -0.28,0.091 -0.525,0.139 -0.739,0.139 -0.287,0 -0.523,-0.077 -0.705,-0.239 -0.184,-0.161 -0.328,-0.394 -0.428,-0.705 -0.102,-0.316 -0.175,-0.687 -0.211,-1.12 -0.038,-0.428 -0.057,-0.952 -0.057,-1.577"
           style="fill:#875420;fill-opacity:1;fill-rule:nonzero;stroke:none"
           id="path54" /><path
           d="m 304.746,10.192 c 0,-0.571 -0.133,-1.057 -0.401,-1.463 -0.267,-0.408 -0.658,-0.711 -1.178,-0.923 -0.521,-0.204 -1.15,-0.311 -1.898,-0.311 -0.705,0 -1.317,0.113 -1.826,0.342 -0.506,0.226 -0.881,0.508 -1.121,0.848 -0.244,0.338 -0.368,0.68 -0.368,1.021 0,0.227 0.079,0.422 0.237,0.583 0.154,0.164 0.351,0.241 0.584,0.241 0.209,0 0.371,-0.053 0.481,-0.156 0.111,-0.112 0.215,-0.258 0.319,-0.449 0.202,-0.369 0.444,-0.644 0.731,-0.825 0.278,-0.184 0.664,-0.274 1.156,-0.274 0.393,0 0.719,0.093 0.974,0.278 0.252,0.183 0.382,0.393 0.382,0.63 0,0.366 -0.133,0.631 -0.394,0.795 -0.268,0.17 -0.698,0.328 -1.303,0.479 -0.681,0.177 -1.236,0.362 -1.664,0.555 -0.428,0.195 -0.773,0.453 -1.027,0.77 -0.256,0.313 -0.386,0.706 -0.386,1.17 0,0.416 0.119,0.807 0.356,1.172 0.236,0.369 0.589,0.662 1.049,0.882 0.461,0.22 1.017,0.331 1.672,0.331 0.51,0 0.97,-0.057 1.38,-0.167 0.407,-0.111 0.753,-0.261 1.021,-0.446 0.273,-0.187 0.483,-0.393 0.624,-0.619 0.145,-0.229 0.215,-0.451 0.215,-0.666 0,-0.238 -0.074,-0.427 -0.229,-0.586 -0.153,-0.144 -0.371,-0.221 -0.647,-0.221 -0.206,0 -0.378,0.059 -0.522,0.183 -0.14,0.119 -0.306,0.299 -0.487,0.538 -0.151,0.202 -0.326,0.366 -0.531,0.486 -0.203,0.119 -0.478,0.181 -0.824,0.181 -0.358,0 -0.658,-0.078 -0.891,-0.239 -0.238,-0.157 -0.357,-0.356 -0.357,-0.594 0,-0.217 0.088,-0.394 0.259,-0.533 0.177,-0.139 0.409,-0.254 0.705,-0.345 0.297,-0.09 0.701,-0.204 1.219,-0.334 0.614,-0.155 1.114,-0.34 1.504,-0.558 0.388,-0.215 0.682,-0.472 0.882,-0.767 0.204,-0.298 0.304,-0.634 0.304,-1.009"
           style="fill:#875420;fill-opacity:1;fill-rule:nonzero;stroke:none"
           id="path56" /><path
           d="m 306.992,7.495 c -0.3,0 -0.558,0.098 -0.773,0.303 -0.221,0.2 -0.328,0.484 -0.328,0.844 0,0.307 0.101,0.572 0.307,0.795 0.208,0.22 0.466,0.329 0.771,0.329 0.302,0 0.563,-0.109 0.773,-0.328 0.218,-0.216 0.326,-0.486 0.326,-0.796 0,-0.357 -0.108,-0.638 -0.326,-0.841 -0.21,-0.204 -0.461,-0.306 -0.75,-0.306"
           style="fill:#875420;fill-opacity:1;fill-rule:nonzero;stroke:none"
           id="path58" /><path
           d="m 315.738,11.688 c 0,0.838 -0.178,1.496 -0.533,1.964 -0.355,0.466 -0.831,0.703 -1.429,0.703 -0.387,0 -0.724,-0.105 -1.02,-0.314 -0.296,-0.212 -0.523,-0.52 -0.681,-0.929 -0.157,-0.404 -0.238,-0.878 -0.238,-1.424 0,-0.541 0.076,-1.01 0.232,-1.413 0.161,-0.403 0.384,-0.712 0.677,-0.926 0.291,-0.214 0.634,-0.32 1.03,-0.32 0.598,0 1.074,0.235 1.429,0.705 0.355,0.47 0.533,1.123 0.533,1.954 m 1.988,0 c 0,-0.612 -0.091,-1.18 -0.278,-1.703 -0.184,-0.514 -0.447,-0.962 -0.796,-1.336 -0.35,-0.374 -0.76,-0.653 -1.246,-0.857 -0.481,-0.199 -1.024,-0.297 -1.63,-0.297 -0.598,0 -1.136,0.098 -1.615,0.303 -0.478,0.2 -0.89,0.489 -1.24,0.865 -0.356,0.377 -0.619,0.816 -0.803,1.328 -0.177,0.516 -0.267,1.077 -0.267,1.7 0,0.625 0.09,1.197 0.275,1.713 0.187,0.523 0.445,0.963 0.787,1.334 0.343,0.367 0.759,0.651 1.248,0.849 0.487,0.2 1.023,0.301 1.615,0.301 0.598,0 1.142,-0.101 1.63,-0.304 0.49,-0.2 0.907,-0.49 1.255,-0.863 0.346,-0.372 0.61,-0.819 0.793,-1.333 0.181,-0.513 0.272,-1.08 0.272,-1.7"
           style="fill:#875420;fill-opacity:1;fill-rule:nonzero;stroke:none"
           id="path60" /><path
           d="M 321.248,10.471 V 8.752 c 0,-0.419 -0.094,-0.734 -0.282,-0.945 -0.186,-0.205 -0.428,-0.312 -0.715,-0.312 -0.289,0 -0.521,0.109 -0.705,0.317 -0.186,0.211 -0.276,0.524 -0.276,0.94 v 5.745 c 0,0.929 0.325,1.391 0.964,1.391 0.329,0 0.564,-0.111 0.708,-0.325 0.143,-0.216 0.228,-0.538 0.245,-0.959 0.232,0.421 0.474,0.743 0.723,0.959 0.249,0.214 0.582,0.325 0.994,0.325 0.422,0 0.825,-0.111 1.212,-0.325 0.392,-0.216 0.589,-0.505 0.589,-0.862 0,-0.252 -0.084,-0.463 -0.249,-0.624 -0.169,-0.163 -0.346,-0.248 -0.543,-0.248 -0.07,0 -0.244,0.048 -0.521,0.144 -0.28,0.091 -0.525,0.139 -0.74,0.139 -0.288,0 -0.522,-0.077 -0.711,-0.239 -0.18,-0.161 -0.324,-0.394 -0.426,-0.705 -0.099,-0.316 -0.17,-0.687 -0.207,-1.12 -0.039,-0.428 -0.06,-0.952 -0.06,-1.577"
           style="fill:#875420;fill-opacity:1;fill-rule:nonzero;stroke:none"
           id="path62" /><path
           d="m 326.959,11.759 c 0,-0.835 0.176,-1.469 0.527,-1.9 0.348,-0.425 0.804,-0.642 1.356,-0.642 0.326,0 0.64,0.096 0.931,0.279 0.293,0.185 0.531,0.461 0.715,0.832 0.186,0.371 0.275,0.819 0.275,1.348 0,0.842 -0.179,1.496 -0.534,1.964 -0.353,0.472 -0.821,0.709 -1.4,0.709 -0.563,0 -1.017,-0.231 -1.356,-0.676 -0.343,-0.45 -0.514,-1.087 -0.514,-1.914 m 5.733,2.618 V 8.378 c 0,-0.688 -0.075,-1.276 -0.212,-1.768 -0.14,-0.497 -0.365,-0.905 -0.673,-1.227 -0.309,-0.321 -0.716,-0.561 -1.212,-0.717 -0.501,-0.153 -1.124,-0.232 -1.866,-0.232 -0.683,0 -1.293,0.095 -1.827,0.295 -0.537,0.204 -0.951,0.458 -1.24,0.775 -0.289,0.311 -0.435,0.637 -0.435,0.972 0,0.252 0.08,0.456 0.249,0.614 0.162,0.163 0.36,0.241 0.591,0.241 0.291,0 0.541,-0.135 0.763,-0.4 0.107,-0.141 0.218,-0.277 0.328,-0.413 0.113,-0.14 0.239,-0.261 0.376,-0.357 0.139,-0.101 0.307,-0.173 0.499,-0.222 0.19,-0.047 0.415,-0.072 0.667,-0.072 0.508,0 0.91,0.076 1.191,0.224 0.283,0.148 0.481,0.356 0.596,0.623 0.109,0.267 0.181,0.552 0.193,0.857 0.023,0.311 0.037,0.796 0.05,1.475 -0.304,-0.442 -0.661,-0.781 -1.055,-1.013 -0.399,-0.232 -0.875,-0.345 -1.421,-0.345 -0.668,0 -1.246,0.172 -1.738,0.528 -0.497,0.352 -0.878,0.845 -1.143,1.482 -0.263,0.633 -0.398,1.366 -0.398,2.199 0,0.624 0.079,1.184 0.244,1.683 0.158,0.497 0.387,0.919 0.692,1.262 0.296,0.343 0.644,0.601 1.034,0.776 0.394,0.172 0.819,0.261 1.291,0.261 0.558,0 1.043,-0.114 1.453,-0.34 0.416,-0.221 0.793,-0.577 1.147,-1.054 v 0.278 c 0,0.36 0.088,0.634 0.254,0.838 0.168,0.193 0.387,0.293 0.651,0.293 0.383,0 0.636,-0.129 0.763,-0.389 0.124,-0.261 0.188,-0.638 0.188,-1.128"
           style="fill:#875420;fill-opacity:1;fill-rule:nonzero;stroke:none"
           id="path64" /><path
           d="m 246.966,34.477 h 2.933 c -0.207,-1.581 -0.855,-2.816 -1.933,-3.705 -0.997,-0.87 -2.205,-1.299 -3.616,-1.299 -1.916,0 -3.446,0.673 -4.587,2.016 -1.082,1.278 -1.622,2.928 -1.622,4.943 0,2.065 0.536,3.715 1.606,4.966 1.069,1.245 2.582,1.871 4.537,1.871 1.454,0 2.685,-0.394 3.682,-1.174 1.058,-0.844 1.705,-2.03 1.933,-3.547 h -2.933 c -0.254,1.324 -1.062,1.982 -2.438,1.982 -2.267,0 -3.403,-1.342 -3.403,-4.03 0,-1.26 0.292,-2.287 0.875,-3.089 0.583,-0.804 1.405,-1.206 2.466,-1.206 1.581,0 2.415,0.759 2.5,2.272 m -11.549,1.851 c 0,-2.626 0.833,-4.849 2.495,-6.659 1.665,-1.811 3.702,-2.717 6.12,-2.717 2.407,0 4.447,0.906 6.109,2.717 1.667,1.81 2.494,4.033 2.494,6.659 0,2.624 -0.827,4.845 -2.494,6.656 -1.662,1.815 -3.702,2.719 -6.109,2.719 -2.418,0 -4.455,-0.904 -6.12,-2.719 -1.662,-1.811 -2.495,-4.032 -2.495,-6.656 m -2.98,0 c 0,3.341 1.13,6.193 3.393,8.562 2.266,2.365 5,3.548 8.202,3.548 3.195,0 5.925,-1.183 8.193,-3.548 2.264,-2.369 3.398,-5.221 3.398,-8.562 0,-3.344 -1.134,-6.199 -3.398,-8.563 -2.268,-2.368 -4.998,-3.551 -8.193,-3.551 -3.202,0 -5.936,1.183 -8.202,3.551 -2.263,2.364 -3.393,5.219 -3.393,8.563"
           style="fill:#875420;fill-opacity:1;fill-rule:nonzero;stroke:none"
           id="path66" /><path
           d="m 237.128,28.733 1.691,-1.434 12.434,15.967 -1.69,1.432 z"
           style="fill:#875420;fill-opacity:1;fill-rule:nonzero;stroke:none"
           id="path68" /><path
           d="m 260.637,448.868 c 121.303,0 219.639,-98.336 219.639,-219.639 0,-64.786 -28.055,-123.013 -72.672,-163.214 H 113.669 c -44.616,40.201 -72.672,98.428 -72.672,163.214 0,121.303 98.337,219.639 219.64,219.639"
           style="fill:#dceefa;fill-opacity:1;fill-rule:evenodd;stroke:none"
           id="path70" /><path
           d="m 191.024,376.545 h 26.405 v 36.853 h -26.405 z"
           style="fill:#f5793b;fill-opacity:1;fill-rule:evenodd;stroke:none"
           id="path72" /><path
           d="m 192.802,413.396 h 24.627 v -32.809 c -11.99,1.516 -22.319,11.686 -23.654,23.905 z"
           style="fill:#e66220;fill-opacity:1;fill-rule:evenodd;stroke:none"
           id="path74" /><path
           d="m 242.121,329.225 30.252,15.525 57.392,-111.841 -30.254,-15.524 z"
           style="fill:#f5a40e;fill-opacity:1;fill-rule:evenodd;stroke:none"
           id="path76" /><path
           d="m 187.223,361.823 h 34.005 v 24.695 h -34.005 z"
           style="fill:#ffbb00;fill-opacity:1;fill-rule:evenodd;stroke:none"
           id="path78" /><path
           d="m 135.271,299.894 h 137.912 v 41.031 c 0,15.882 -12.995,28.876 -28.876,28.876 h -80.161 c -15.881,0 -28.875,-12.994 -28.875,-28.876 z"
           style="fill:#ffbb00;fill-opacity:1;fill-rule:evenodd;stroke:none"
           id="path80" /><path
           d="m 135.271,121.234 h 51.238 v 138.768 h -51.238 z"
           style="fill:#ffbb00;fill-opacity:1;fill-rule:evenodd;stroke:none"
           id="path82" /><path
           d="m 162.721,140.706 h 41.505 V 57.691 H 121.213 V 99.2 c 0,22.828 18.678,41.506 41.508,41.506"
           style="fill:#ffbb00;fill-opacity:1;fill-rule:evenodd;stroke:none"
           id="path84" /><path
           d="M 135.271,316.23 H 273.183 V 198.113 c 0,-37.925 -31.03,-68.955 -68.957,-68.955 -37.926,0 -68.955,31.03 -68.955,68.955 z"
           style="fill:#18963a;fill-opacity:1;fill-rule:evenodd;stroke:none"
           id="path86" /><path
           d="M 150.848,87.326 H 273.182 V 269.69 H 150.848 Z"
           style="fill:#18963a;fill-opacity:1;fill-rule:evenodd;stroke:none"
           id="path88" /><path
           d="m 273.183,217.385 h -31.062 v -18.732 h 31.062 z m -104.856,0 h 42.171 v -18.732 h -42.171 z"
           style="fill:#087826;fill-opacity:1;fill-rule:evenodd;stroke:none"
           id="path90" /><path
           d="m 330.55,269.69 63.068,-63.069 V 87.326 H 267.483 v 119.295 z"
           style="fill:#875420;fill-opacity:1;fill-rule:evenodd;stroke:none"
           id="path92" /><path
           d="m 248.099,198.652 82.451,82.451 82.452,-82.451 -7.614,-7.615 -74.838,74.838 -74.837,-74.838 z"
           style="fill:#b57f48;fill-opacity:1;fill-rule:evenodd;stroke:none"
           id="path94" /><path
           d="m 334.255,102.949 c 3.975,0 7.219,3.245 7.219,7.219 0,3.978 -3.244,7.22 -7.219,7.22 -3.977,0 -7.22,-3.242 -7.22,-7.22 0,-3.974 3.243,-7.219 7.22,-7.219"
           style="fill:#734416;fill-opacity:1;fill-rule:evenodd;stroke:none"
           id="path96" /><path
           d="m 330.55,140.706 c 12.291,0 22.315,10.025 22.315,22.315 0,12.292 -10.024,22.317 -22.315,22.317 -12.291,0 -22.317,-10.025 -22.317,-22.317 0,-12.29 10.026,-22.315 22.317,-22.315"
           style="fill:#4a2909;fill-opacity:1;fill-rule:evenodd;stroke:none"
           id="path98" /><path
           d="m 330.55,106.797 c 3.976,0 7.219,3.243 7.219,7.219 0,3.976 -3.243,7.218 -7.219,7.218 -3.976,0 -7.219,-3.242 -7.219,-7.218 0,-3.976 3.243,-7.219 7.219,-7.219"
           style="fill:#b57f48;fill-opacity:1;fill-rule:evenodd;stroke:none"
           id="path100" /><path
           d="m 367.098,269.549 c 13.666,0 27.705,-11.397 31.355,-25.455 3.65,-14.059 -4.471,-25.454 -18.136,-25.454 -13.668,0 -27.704,11.395 -31.354,25.454 -3.651,14.058 4.47,25.455 18.135,25.455"
           style="fill:#f5793b;fill-opacity:1;fill-rule:evenodd;stroke:none"
           id="path102" /><path
           d="m 159.763,367.208 c 9.059,2.421 18.365,-2.961 20.787,-12.02 2.42,-9.06 -2.961,-18.367 -12.022,-20.788 l -8.073,-2.163 -59.316,-108.64 c -4.475,-8.217 -14.763,-11.249 -22.979,-6.775 -2.928,1.595 -5.198,3.929 -6.703,6.644 l -0.004,-0.003 -34.194,61.169 c -4.548,8.179 -1.604,18.497 6.575,23.044 8.179,4.549 18.496,1.605 23.044,-6.575 l 19.212,-34.367 47.578,87.139 c 2.043,4.425 5.963,7.944 11.039,9.301 z"
           style="fill:#ffbb00;fill-opacity:1;fill-rule:evenodd;stroke:none"
           id="path104" /><path
           d="m 60.021,306.85 c 3.84,-6.909 1.354,-15.624 -5.555,-19.465 -6.907,-3.84 -15.622,-1.355 -19.463,5.554 l -1.675,2.997 c -3.842,6.908 -1.355,15.623 5.553,19.464 6.908,3.841 15.623,1.355 19.463,-5.554 z"
           style="fill:#f5793b;fill-opacity:1;fill-rule:evenodd;stroke:none"
           id="path106" /><path
           d="M 45.836,399.72 H 57.281 V 296.994 c 0,-3.149 -2.575,-5.723 -5.723,-5.723 -3.147,0 -5.722,2.574 -5.722,5.723 z"
           style="fill:#875420;fill-opacity:1;fill-rule:evenodd;stroke:none"
           id="path108" /><path
           d="m 26.483,396.87 h 50.151 c 2.507,0 4.559,-2.051 4.559,-4.558 v -17.953 c 0,-2.507 -2.052,-4.558 -4.559,-4.558 H 26.483 c -2.507,0 -4.559,2.051 -4.559,4.558 v 17.953 c 0,2.507 2.052,4.558 4.559,4.558"
           style="fill:#b57f48;fill-opacity:1;fill-rule:evenodd;stroke:none"
           id="path110" /><path
           d="m 50.046,345.631 v 0 c 10.118,0 18.396,-8.277 18.396,-18.394 v -5.951 c 0,-10.118 -8.278,-18.395 -18.396,-18.395 H 31.651 v 24.346 c 0,10.117 8.278,18.394 18.395,18.394"
           style="fill:#f5793b;fill-opacity:1;fill-rule:evenodd;stroke:none"
           id="path112" /><path
           d="M 83.074,57.691 H 438.2 V 87.326 H 83.074 Z"
           style="fill:#b57f48;fill-opacity:1;fill-rule:evenodd;stroke:none"
           id="path114" /><path
           d="m 177.367,475.707 h 61.658 l 5.862,-53.612 c 1.853,-16.956 -10.504,-30.829 -27.458,-30.829 h -0.002 c -16.956,0 -32.346,13.873 -34.198,30.829 z"
           style="fill:#f5793b;fill-opacity:1;fill-rule:evenodd;stroke:none"
           id="path116" /><path
           d="m 242.756,421.854 c -1.26,-6.747 -6.988,-11.705 -14.36,-11.705 -7.37,0 -14.183,4.958 -16.918,11.705 z"
           style="fill:#ffffff;fill-opacity:1;fill-rule:evenodd;stroke:none"
           id="path118" /><path
           d="m 240.759,459.854 4.311,15.853 c 1.653,6.077 -0.074,12.576 -4.528,17.03 -4.455,4.454 -10.952,6.182 -17.031,4.529 h -46.144 c -2.514,0 -4.837,-1.341 -6.095,-3.518 -1.256,-2.178 -1.256,-4.859 0,-7.037 l -3.473,-6.018 c -3.141,-5.439 -3.141,-12.141 0,-17.581 l 23.225,-68.142 5.743,51.996 h 11.639 l -4.18,21.465 6.992,-1.519 c 9.47,-2.058 19.271,-2.058 28.74,0 z"
           style="fill:#332d2a;fill-opacity:1;fill-rule:evenodd;stroke:none"
           id="path120" /><path
           d="m 191.04,458.07 c 4.626,1.357 9.635,-4.492 11.187,-13.065 1.551,-8.573 -0.942,-16.623 -5.57,-17.98 -4.626,-1.358 -9.636,4.492 -11.188,13.064 -1.551,8.574 0.943,16.623 5.571,17.981"
           style="fill:#f5793b;fill-opacity:1;fill-rule:evenodd;stroke:none"
           id="path122" /><path
           d="m 211.218,451.827 12.618,2.641 v -5.6 l -12.618,-2.64 z"
           style="fill:#332d2a;fill-opacity:1;fill-rule:evenodd;stroke:none"
           id="path124" /><path
           d="m 217.528,438.463 c 2.154,0 3.913,3.094 3.913,6.886 0,3.793 -1.759,6.886 -3.913,6.886 -2.156,0 -3.913,-3.093 -3.913,-6.886 0,-3.792 1.757,-6.886 3.913,-6.886"
           style="fill:#332d2a;fill-opacity:1;fill-rule:evenodd;stroke:none"
           id="path126" /><path
           d="m 243.302,451.827 -10.934,2.641 v -5.6 l 10.934,-2.64 z"
           style="fill:#332d2a;fill-opacity:1;fill-rule:evenodd;stroke:none"
           id="path128" /><path
           d="m 237.835,438.463 c 1.866,0 3.391,3.094 3.391,6.886 0,3.793 -1.525,6.886 -3.391,6.886 -1.867,0 -3.391,-3.093 -3.391,-6.886 0,-3.792 1.524,-6.886 3.391,-6.886"
           style="fill:#332d2a;fill-opacity:1;fill-rule:evenodd;stroke:none"
           id="path130" /><path
           d="m 164.146,369.801 h 23.079 v -69.907 h -23.079 z m 109.037,-69.907 v 41.031 c 0,12.561 -8.13,23.313 -19.385,27.262 v -68.293 z"
           style="fill:#18963a;fill-opacity:1;fill-rule:evenodd;stroke:none"
           id="path132" /></g></g></g></svg>
